<?xml version="1.0" ?>
<!DOCTYPE svg  PUBLIC '-//W3C//DTD SVG 1.1//EN'  'http://www.w3.org/Graphics/SVG/1.1/DTD/svg11.dtd'>
<svg style="fill: white; fill-opacity: 0.1;" enable-background="new 0 0 234.179 241.667" height="241.667" id="Layer_1" overflow="visible" version="1.1" viewBox="0 0 234.179 241.667" width="234.179" xml:space="preserve" xmlns="http://www.w3.org/2000/svg" xmlns:xlink="http://www.w3.org/1999/xlink">
<g>
	<path d="M234.2,72.2c0,8.3-6.8,15-15,15H15c-8.3,0-15-6.8-15-15v-0.1c0-8.3,6.8-15,15-15h204.2c8.3,0,15,6.8,15,15V72.2z"/>
</g>
<path d="M39.3,41.1c0-14,11.3-25.3,25.3-25.3S90,27.1,90,41.1"/>
<path d="M159.7,41.1c0-8.5,6.9-15.3,15.3-15.3s15.3,6.9,15.3,15.3"/>
<circle cx="125.3" cy="10.7" r="10.7"/>
<path d="M8.7,187.8c0,0,1,41,28,49l13.5-13.5C50.2,223.3,25.7,212.8,8.7,187.8z"/>
<path d="M219.1,202.7c0,0-0.6,24.3-16.6,29l-8-8C194.6,223.7,209.1,217.5,219.1,202.7z"/>
<path d="M217.5,87.2h-200C10.7,100.3,7,109.4,7,124.8c0,34.9,17,65.7,46.3,83.8c0,0,22.4,14.6,41,15.3c3.3-13,10.5-33,24.4-45.7
	c0,0,21,21.2,33.8,42.9c2.2-0.6,4.3-1.2,6.4-1.9l26.1-12.7c27.3-18.3,43.1-48.1,43.1-81.7C228,109.4,224.2,100.3,217.5,87.2z"/>
<path d="M105.7,240.8c0,0,2.7-28.9,14.7-40.9c0,0,15.3,22.9,21.3,37.6C141.7,237.5,124.7,244,105.7,240.8z"/>
</svg>
